<svg version="1" xmlns="http://www.w3.org/2000/svg" width="2666.667" height="2666.667" viewBox="0 0 2000.000000 2000.000000"><path d="M792.2 89.5c-.4.5-.7 2.3-.8 4-.1 1.6-.3 3-.4 3-.2 0-.4 1.1-.5 2.5-.8 7.2-1.4 11.9-2 15.1-.3 2-.8 5.3-1.1 7.5-.2 2.1-.7 5.2-.9 6.9-.2 1.6-.6 4.8-.9 7-.3 2.2-.8 5.8-1.1 8-.4 2.2-.8 5.1-1 6.5-.1 1.4-.6 4.5-1 7s-.9 6.3-1.1 8.5c-1.1 9.4-1.3 11.1-1.7 13.1-.3 1.2-.8 4.5-1.2 7.5-.3 3-.9 6.7-1.1 8.4-.3 1.6-.7 4.6-.9 6.5-.3 1.9-.7 4.6-1 6-.3 1.4-.8 5-1.1 8-.3 3-.7 6.7-1 8.2-.9 5.9-1.3 8.5-1.9 13.3-1.1 8.6-1.3 10.2-3 21.5-.7 4.7-1.5 10.8-1.9 14.5-.2 1.6-.7 5.2-1.1 8-.4 2.7-.9 6.1-1.1 7.5-.2 1.4-.5 3.9-.8 5.5-.4 3-1.5 10.6-2.1 15.5-.9 7.1-1.5 11.8-2.1 15-.3 1.9-.7 5.1-.9 7-.2 1.9-.4 3.5-.5 3.5-.2 0-.4 1.1-.5 2.5-.1 1.4-.6 4.7-.9 7.5-.7 4.6-1 7.1-2.1 14.5-1.5 10.7-2.3 16.2-3 22.5-.2 1.6-.7 4.8-1 7-.5 3.6-.8 5.5-1.9 13.5-.2 1.4-.7 4.7-1.1 7.5-.4 2.7-.9 6.3-1 8-.2 1.6-.6 4.6-1 6.6-.3 2-.8 5.3-1.1 7.5-.2 2.1-.7 5.2-.9 6.9-1.1 7.3-2.7 19.6-3 23-.2 1.6-.4 3-.5 3-.1 0-.4 1.3-.6 3-.6 5-1.3 10.8-1.9 14.7-.3 2.1-.7 5.3-1 7-.2 1.8-.7 4.9-1 6.8-.6 3.3-1.1 7.6-1.9 14.5-.2 1.6-.7 5-1.1 7.5-.4 2.5-.9 5.8-1.1 7.5-.2 1.6-.6 4.7-.9 6.7-1.3 9.3-1.6 11.5-2 14.8-.3 3.4-.8 6.5-2.1 14.7-.3 2.1-.8 5.4-.9 7.3-.2 1.9-.4 3.5-.5 3.5-.1 0-.3 1.1-.5 2.5s-.6 4.5-.9 7c-.3 2.5-.8 6.3-1.1 8.5-.3 2.2-.8 5.6-1.1 7.5-.3 1.9-.7 5.1-1 7-.2 1.9-.6 4.8-.8 6.5-.3 1.6-.7 4.8-1 7-.3 2.2-.7 4.9-.9 6-.4 2-1.2 2-141.8 2-77.8 0-141.9.3-142.4.7-.7.4-1 33.9-.9 98 .1 53.5.2 97.5.3 97.8 0 .3 57.9.5 128.6.5H690l-.6 4.5c-.3 2.5-.8 6.1-1.1 8-.2 1.9-.6 5.1-.8 7-.1 1.9-.4 3.5-.5 3.5-.1 0-.3 1.3-.5 3-.1 1.6-.6 5-1 7.5s-.8 5.8-1 7.5c-.4 3-1.2 8.5-2 14-.2 1.6-.6 4.7-.9 6.7-.2 2.1-.7 5.9-1.1 8.5-2.6 18.1-2.6 17.7-3.9 28.8-.4 2.7-.9 6.3-1.2 8-.3 1.6-.7 4.1-.9 5.5-.2 1.4-.6 4.7-1 7.5-.4 2.7-.9 6.3-1.1 8-.2 1.6-.6 4.3-.8 6-.7 4.2-1.6 11.5-2.1 15-.2 1.6-.6 5-1 7.5-1.7 11.8-2.4 17.2-3 21.5-.3 2.2-.7 5.1-1 6.5-.3 1.4-.7 4.7-1.1 7.5-.3 2.7-.7 6.1-.9 7.5-.2 1.4-.6 4.7-1 7.5-.3 2.7-.8 6.3-1.1 8-.6 3-1.2 7.4-1.9 13-.2 1.6-.6 5-1 7.5s-.8 5.8-1 7.5c-.2 1.6-.7 5-1 7.5-.4 2.5-.8 5.6-1 7-.1 1.4-.6 4.5-1 7s-.9 5.6-1 7c-.1 1.4-.5 4.3-.8 6.5-.9 5.9-1.9 12.7-2.2 15-.1 1.1-.6 4.5-1 7.5s-.9 6.8-1.1 8.5c-.1 1.6-.3 3-.4 3-.1 0-.3 1.1-.5 2.5-.1 1.4-.6 4.7-1 7.5-.4 2.7-.9 6.1-1 7.5-.2 1.4-.7 4.7-1 7.5-.4 2.7-.8 6.3-.9 7.9-.2 2.3-.9 3.1-2.7 3.6-1.3.3-64.8.5-141.1.5-96.5-.1-138.9.2-139.1.9-.2.6-.4 44.7-.3 98.1l.1 97 117.5.2c64.6.1 122.1.2 127.8.2 10.2.1 10.3.1 9.6 2.3-.3 1.2-.8 3.7-1 5.5-.2 1.8-.6 5-.9 7-.3 2.1-.7 5.1-.9 6.8-.8 6.7-1.7 13.2-2.2 16-.3 1.6-.8 4.3-1 6-.2 1.6-.6 4.6-.8 6.5-.3 1.9-.8 5.3-1 7.5-.3 2.2-.7 5.6-1 7.5-.3 1.9-.9 5.3-1.2 7.5-.3 2.2-.7 5.1-.9 6.5-.2 1.4-.6 4.7-.9 7.3-.4 2.6-.9 6.5-1.2 8.5-.3 2-.7 5.2-1 6.9-.7 5.8-1.4 10.7-1.9 13.8-.6 3.5-1.2 8.4-1.9 14-.2 2.2-.7 5.6-1.1 7.5-.4 1.9-.9 5.3-1.1 7.5-.5 4.3-1 8.2-1.8 13-.2 1.6-.7 5.5-1.1 8.5-.3 3-.8 6.8-1.1 8.5-.5 3.3-1 6.8-1.8 13-.3 2.2-.8 5.3-1 7-.3 1.6-.8 5.3-1.1 8.1-.3 2.8-.8 6.2-1 7.5-.3 1.3-.8 4.4-1.1 6.9-.3 2.5-.8 5.6-.9 7-.2 1.4-.6 4.5-.9 7-.5 4.6-1 7.6-2.1 14.1-.6 3.5-1.2 8.1-1.9 14.4-.2 1.6-.7 5-1.1 7.5-.4 2.5-.8 6.1-1 8-.2 1.9-.4 3.5-.5 3.5-.2 0-.2.4-1.5 10-.4 3.3-.9 7.3-1.1 9-.3 1.6-.7 4.3-.9 6-.6 4.3-1.5 10.5-2 14-.2 1.6-.6 4.7-.9 6.7-.2 2.1-.7 5.9-1.1 8.5-1.2 8-1.5 10.6-2.1 14.3-.2 1.9-.7 4.8-.9 6.5-.3 1.6-.6 4.8-.9 7-.2 2.2-.7 5.8-1.1 8-.8 4.8-1.2 7.7-1.9 13-.3 2.2-.7 5.6-1 7.5-.8 5.3-2.4 17.2-3 23-.2 1.9-.5 3.5-.6 3.5-.1 0-.4 1.3-.5 3-.2 1.6-.5 4.3-.9 6-.3 1.6-.8 5.2-1.1 8-.8 6.9-1.3 10.4-2 14.3-.5 3-.8 5.5-1.9 14.7-.2 1.6-.7 5.2-1.1 8-.4 2.7-.9 6.1-1.1 7.5-.2 1.4-.6 4.1-.9 6-.3 1.9-.7 5.5-.9 8-.2 2.5-.5 4.5-.6 4.5-.2 0-.4 1.1-.5 2.5-.2 1.4-.6 4.3-.9 6.5-.6 3.6-1.2 8.4-2.1 15.5-.1 1.4-.6 4.5-1 7-1.2 7.9-1.4 9.5-.9 11 .3 1.3 12 1.5 98 1.5s97.7-.2 98-1.5c.1-.8.5-2.9.8-4.5.3-1.7.8-5.3 1.1-8 .7-5.3 1-7.4 2-14.5.4-2.5.9-6.1 1.1-8 .6-4.8 1.2-8.8 1.9-13 .3-1.9.7-5.5 1-8 .3-2.5.7-6.1 1-8 .3-1.9.7-4.9.9-6.5.2-1.7.6-4.4.9-6 .6-3.2 1.8-11.5 2.2-15.5.2-1.4.6-4.5 1-7 .3-2.5.8-6.1 1.1-8 .9-6.5 1.3-9.5 1.8-12.5.5-3.6 1.6-11.9 2-16 .2-1.7.7-4.6 1.1-6.5.3-1.9.9-5.3 1.1-7.5.2-2.2.6-5.1.8-6.5a1072.462 1072.462 0 0 0 2.2-16.5c1.1-6.9 1.4-9.2 1.8-13 .2-2.2.7-5.6 1.1-7.5.3-1.9.8-4.9 1-6.5.2-1.7.6-5.3 1-8 .9-6.1 1.4-9.9 1.9-14.5.2-1.9.7-4.9 1-6.5.6-3.8 1.7-11.1 2.2-15.2.2-1.8.6-5 .9-7 .3-2.1.7-5.2.9-6.8.7-5.4 1.6-11.9 2.3-16 .3-2.2.7-5.4.9-7 .1-1.7.3-3 .4-3 .1 0 .3-1.1.5-2.5 1.7-13.5 2-15.9 4.1-29.5.2-1.7.6-5 .8-7.5.3-2.5.5-4.5.6-4.5.2 0 .4-1.1.5-2.5.2-1.4.6-4.5 1-7 .7-4.9 1.2-8.3 2-14.5.2-2.2.7-5.6 1-7.5.3-1.9.7-5.1.9-7 .2-1.9.7-5.1 1.1-7 .4-1.9.9-5.3 1.1-7.5.3-2.2.6-5.4.9-7 .6-4.6 1.5-10.6 2-14.5.2-1.9.7-5.1 1-7 .3-1.9.8-5.2 1-7.3.7-5.6 1.6-11.9 2.1-15.2.2-1.7.6-4.8.9-7 .3-2.2.7-5.4 1-7 .9-5.7 2.4-16.8 3-23 .3-2.2.7-5.1 1-6.5.3-1.4.8-4.5 1.1-7 .3-2.5.8-5.9 1.1-7.5.5-3 1.1-7.9 1.7-14.5.2-1.9.5-3.5.6-3.5.1 0 .3-1.1.5-2.5.3-2.3.9-6.5 1.9-13.5.3-1.7.7-5.4 1-8.4.4-3 .8-5.6 1-5.9.4-.3 249.8-.5 287.3-.3l8.1.1-.3 3.3c-.3 1.7-.6 4.8-.9 6.8-.3 2-.7 5.6-1 8-.3 2.4-.9 6-1.2 7.9-.6 3.8-1.3 8.7-1.8 13.5-.2 1.6-.7 5-1.1 7.5-.4 2.5-.8 5.8-1.1 7.5-.2 1.6-.5 4.6-.8 6.5-.7 4.9-1.7 12-2.1 15-.5 3.8-1.8 12.5-3 21-.3 2.5-.8 5.8-1 7.5-.2 1.6-.7 5-1 7.5-.4 2.5-.8 5.6-1 7-1.1 8.3-1.5 11.8-2 14-.2 1.4-.7 4.7-1 7.5-.4 2.7-.8 6.3-1 8-.2 1.6-.7 4.8-1 7-.4 2.2-.8 5.1-1 6.5-1.2 9.4-1.6 11.9-2.1 15.5-.4 2.2-.8 5.1-1 6.5-.5 4.1-1.4 11.2-2 15-.3 1.9-.6 5.1-.8 7-.2 1.9-.5 3.5-.6 3.5-.1 0-.3 1.5-.5 3.4s-.6 5.3-1 7.5c-.3 2.3-.8 5.7-1.1 7.6-.2 1.9-.7 5.1-1 7-.3 1.9-.7 5.3-1 7.5-.4 3.8-1 7.9-1.8 13.5-.2 1.4-.7 4.7-1 7.5-.3 2.7-.8 6.1-1.1 7.5-.3 1.4-.8 4.5-1 7-.2 2.5-.6 5.4-.8 6.5-.4 1.7-1 6.2-2.3 16-.3 2.5-1.2 9.1-1.8 13-.3 1.6-.8 5.4-1.1 8.4-.4 3-.9 6.4-1.1 7.5-.3 1.2-.7 3.9-.9 6.1-.3 2.2-.7 5.6-1 7.5-.3 1.9-.8 5.1-1 7-.2 1.9-.6 5.1-.9 7-.3 1.9-.8 5.1-1.1 7-.2 1.9-.7 5.1-.9 7-.5 3.2-1.2 8.4-2.3 17-.2 1.9-.6 4.8-.9 6.5-.4 2.9-.7 4.4-1.9 13-.3 2.2-.7 5.5-1 7.3-.2 1.8-.6 5-.9 7-.3 2-.8 5.4-1.1 7.4-.3 2.1-.8 5.5-1.1 7.5-.3 2.1-.7 5.1-1 6.8-.5 3.9-1.3 10.2-1.8 14-.2 1.6-.6 4.8-1 7-.3 2.2-.8 5.8-1.1 8-1.3 9.8-1.7 12.2-2 14.5-.4 2.4-1.1 7.8-2 14.5-.2 1.6-.6 4.3-.9 6-.2 1.6-.7 5-1 7.5-.3 2.5-.8 6.1-1.1 8-.4 1.9-.8 5.1-1 7-.2 1.9-.6 5.4-.9 7.7-.3 2.4-.2 4.4.2 4.4 2.3.4 194.5.3 195.2-.1.4-.3 1-2.8 1.4-5.5.3-2.8.8-6.1 1-7.5.3-1.4.8-4.5 1.1-7 .3-2.5.8-5.9 1.1-7.5.2-1.7.6-5 .8-7.5.3-2.5.5-4.5.6-4.5.2 0 .4-1.1.5-2.5.7-6.2 1.6-12.7 2.1-15.5.4-1.7.8-4.6 1-6.5.2-1.9.6-5.1.8-7 .3-1.9.8-5.3 1-7.5.3-2.2.8-5.1 1.1-6.5.5-2.3 1.2-7.9 2-15.5.1-1.7.6-4.6 1-6.5.3-1.9.8-5.2 1.1-7.3.5-4.2 1.4-11 1.9-14.7.2-1.4.6-4.3.9-6.5.3-2.2.8-5.8 1.1-8 .4-2.2.8-5.1 1-6.5.2-1.4.6-4.8 1-7.5.3-2.8.9-6.4 1.2-8 .3-1.7.7-4.6.9-6.5.1-1.9.6-5.3.9-7.5.8-5.3 1.5-10.3 2-14 .2-1.7.6-5 1-7.5.3-2.5.8-5.6 1-7 .2-1.4.6-4.5 1-7s.8-6.1 1-8c.1-1.9.3-3.5.5-3.5.3 0 .7-2.6 1.5-9.5 1.1-10.3 1.3-11.3 2-15 .6-3.4 1.3-8.5 2-14.5.5-5.2 1.6-12.9 2.2-16 .5-3 .8-5.2 1.8-13 .3-2.2.7-5.4 1-7 1.1-7.1 1.4-9.4 3-22 .3-1.7.7-4.8 1-7 .3-2.2.8-5.6 1-7.5.1-1.9.6-5.3 1-7.5.8-5.3 1.2-8 2-14 .4-2.8.9-6.4 1.1-8 .2-1.7.6-4.6.8-6.5.2-1.9.7-5.1 1.1-7 .6-3.4 1.4-9.5 2-15.5.2-1.7.4-3 .5-3 .1 0 .4-1.4.6-3 .5-4.4 1.3-10.6 1.8-14 .2-1.7.7-5.3 1.1-8 .4-2.8.9-6.4 1.2-8 .2-1.7.6-4.8.8-7 .1-2.2.4-4 .5-4 .2 0 .4-1.1.5-2.5.1-1.4.6-4.8 1-7.5.7-4.9 1.2-8 1.9-14 .4-2.9 1-7.4 2-14.5.2-1.9.7-4.9 1-6.5.6-3.6 1.7-11.8 2.2-16 .9-7.4 1.3-10.3 1.9-14 .3-2.2.8-5.4 1-7 .2-1.7.8-5.3 1.2-8 .4-2.8.7-5.8.6-6.8 0-1.2.7-1.7 2.6-1.7 1.4-.1 60.7-.1 131.8-.1 96.9-.1 129.3-.4 129.5-1.2.4-1 .2-193.2-.1-194.8 0-.3-53.1-.5-117.9-.5l-117.9.1.3-4c.1-2.2.3-4 .4-4 .1 0 .3-1.1.5-2.5.1-1.4.5-4.3.9-6.6s.9-6.1 1.2-8.5c.6-4.9.9-7.5 1.8-13.4.4-2.2.9-5.8 1.2-8 .2-2.2.7-5.8 1-8 .3-2.2.7-5.1.9-6.5.8-5.3 2-13.8 3-21 .3-2.5.8-6.1 1.1-8 .2-1.9.6-4.6.9-6 .7-4.3 1.6-11.4 1.9-14.5.4-3.7 1.6-12 2.3-16 .3-1.7.7-4.6.9-6.5.2-1.9.5-4.6.8-6 .2-1.4.7-5 1.1-8 .4-3 .9-6.6 1.1-8 .5-3.6 1.4-9.9 1.9-14 1.1-8.6 2.1-15.6 3.1-21.5.3-1.7.7-4.8 1-7 .6-4.6 1.1-8.6 1.8-13.5.3-1.9.8-5.3 1-7.5.4-3.8.8-6.1 2.1-15 .4-2.2.8-5.4 1-7 .3-2.8 1-7.7 2.1-15 .2-1.7.6-4.8.9-7 .3-2.2.7-5.4.9-7 .3-1.7.8-5 1.1-7.5.3-2.5.8-5.6 1-7 .5-2.8 1.5-11 2-15.5.2-1.7.4-3 .5-3 .2 0 .4-1.1.5-2.5.6-5.2 1.5-12.6 2-15.8 1.5-10 2.4-16.4 3.1-22.2.3-2.5.9-4.7 1.4-5 .4-.3 59.1-.5 130.4-.5 114.5 0 129.7-.2 130-1.5.3-.8.4-45 .4-98.2-.1-70.1-.4-96.8-1.2-97.1-.6-.2-53.2-.3-116.9-.3l-115.8.1.6-5c1-8.9 1.4-11.8 2-15.4.4-2 .8-5 1-6.6.2-1.7.7-4.8 1-7 .3-2.2.7-5.6 1-7.5.6-4.6 1.2-9.5 2.1-15 .4-2.5.8-5.9 1-7.5.2-1.7.6-4.6.9-6.5.3-1.9.7-5.1.9-7 .4-3.3.9-6.7 2.2-15 .3-1.9.7-4.6.9-6 1.4-11.6 1.8-14.8 2.1-16.5.7-3.2 2-12.5 2.8-20 .3-2.2.8-5.6 1.1-7.5.3-1.9.7-5.1 1-7 .2-1.9.7-5.1 1-7 .4-1.9.8-5.1 1.1-7 .2-1.9.6-5.5.9-8 .6-4.3.8-5.8 2-14.5.4-2.2.8-5.6 1-7.5.2-1.9.4-3.5.5-3.5.1 0 .3-1.1.5-2.5.4-3.5 1.6-12 2-15 .4-2.6 1.3-9 2.1-15 .2-1.9.6-5.3.8-7.5.2-2.2.5-4 .6-4 .1 0 .3-1.1.5-2.5.1-1.4.6-4.5 1-7s.9-5.9 1.1-7.5c.2-1.7.5-4.4.8-6 .5-3.5 1.6-11.7 2.2-16 .4-3.6 1.1-8.6 1.9-14 .3-2.2.8-5.6 1-7.5.2-1.9.4-3.5.5-3.5.1 0 .3-1.4.5-3 .6-4.9 1.5-11.8 2-15 .7-4.7 1.9-13.1 2.9-21 .5-4.2 1.7-12.4 2.3-16 .6-3.6 1.1-7.8 1.7-12.5.5-4.6 1.6-12.8 2.3-16.5.2-1.7.6-4.5.9-6.3.2-1.7.6-4.7.9-6.5.3-1.7.7-5.2 1-7.7.3-2.5.8-6.1 1.1-8 .3-1.9.7-5 1-6.8.2-1.7.6-4.7.8-6.5.3-1.7.7-4.9 1-7 .4-2 .8-5.2 1-7 .8-6.4 1.8-13.3 2.3-16.2.3-1.7.7-4.4.9-6 .2-1.7.5-4.4.8-6 .2-1.7.7-5.5 1.1-8.5.3-3 .8-6.6 1-8 1.1-6.7 1.7-10.8 2-14 .1-1.9.4-3.5.5-3.5.1 0 .4-1.4.5-3 .3-2.7.9-7.4 2.1-15.8 1-6.9 1.1-8.7.5-8.8-2.7-.6-194.6-.2-195.4.3-.7.4-1.3 2-1.3 3.5-.1 1.5-.5 5-.9 7.8-.4 2.7-.9 6.2-1.1 7.7-.2 1.6-.6 4-.8 5.5-.2 1.6-.7 5-1 7.8-.3 2.7-.8 6.1-1.1 7.5-.5 2.3-.8 4.3-2 14.4-.2 2.2-.7 5.5-1.1 7.5-.3 2-.8 5.2-.9 7.1-.2 1.9-.6 5.3-1 7.5-.3 2.2-.8 5.6-1.1 7.5-1.1 7.3-2.5 17.8-2.9 21.5-.1 1.6-.5 4.3-.8 6-.4 1.6-.9 5.2-1.2 8-1.1 8-1.3 9.8-1.8 13.5-.3 1.9-.8 5.7-1.2 8.5-.4 2.7-.9 6.3-1.2 8-.3 1.6-.7 4.5-.9 6.2-.2 1.8-.6 4.8-.9 6.5-.2 1.8-.6 5.1-.9 7.3-1 8-1.6 12.1-2.1 14.5-.3 1.4-.8 4.7-1.1 7.5-.3 2.7-.7 6.1-.9 7.5-.6 3.9-1.6 11.3-2 14-.1 1.4-.6 4.7-1 7.5-.8 5.4-1.4 9.3-1.9 14-.9 7.3-1.7 13.2-2.2 16-.3 1.6-.8 4.6-1 6.5-.2 1.9-.6 5.1-.9 7-.3 1.9-.7 5.1-1 7-.6 5-1.4 10.9-2.1 15-.3 1.9-.7 4.6-.9 6-.2 1.4-.7 4.5-1 7-.3 2.5-.8 5.6-.9 7-.2 1.4-.7 5-1.1 8-.4 3-.9 6.6-1.1 8-.3 2.6-1.3 9.6-1.9 14-.2 1.4-.6 4.5-1 7-.3 2.5-.8 5.6-1 7-.6 3.7-1.6 11.1-2.1 14.5-.2 1.6-.5 4.6-.8 6.5-.2 1.9-.7 5.5-1 8-.3 2.5-.8 5.6-1 7-.8 4.3-1.9 12.4-2.1 15.5-.2 1.6-.4 3-.5 3-.1 0-.4 1.3-.6 3-.9 7.7-1.3 11.3-1.9 14.7-1.7 12.1-2.4 17.3-2.8 20.8-.2 1.4-.7 4.7-1.1 7.5-1.6 10.7-1.8 12.1-2.2 15-.2 1.6-.6 4.8-.9 7-.3 2.2-.7 5.3-.9 7-.3 1.6-.7 4.8-1 7-.3 2.2-.8 5.8-1.1 8-.6 3.8-1 6.7-1.9 13.7-.2 1.8-.7 5.5-1.1 8.3-.3 2.7-.8 6.1-1 7.5-.5 3.9-1.6 9.3-1.9 9.9-.2.3-66.7.6-147.8.6-146.6 0-147.3 0-147.1-2 .2-1.9.6-5.6 1.9-14.8.3-2.3.7-5.3.9-6.7.1-1.4.6-4.8 1-7.5.4-2.8.9-6.1 1-7.5.2-1.4.6-4.3 1-6.5.8-5 1.4-8.9 1.9-14 .3-2.2.7-5.8 1-8 .4-2.2.8-5.4 1-7 .3-1.7.7-4.4 1-6 .3-1.7.8-5.5 1.1-8.5.3-3 .8-6.9 1.1-8.5.6-2.9.8-4.1 1.9-13 .3-2.2.7-5.4 1-7 .2-1.7.7-5 1-7.5.3-2.5.8-6.1 1.1-8 .3-1.9.7-4.9.9-6.5.2-1.7.7-4.8 1-7 .4-2.2.8-5.6 1-7.5.2-1.9.4-3.5.5-3.5.1 0 .3-1.1.5-2.5.1-1.4.5-4.8 1-7.5.4-2.8.8-6.4 1-8 .6-4.9 1.4-10.8 2-13.5.2-1.3.7-4.9 1-8 .3-3.1.8-6.7 1-8 .5-2.3 1.1-6.4 2-13 .2-1.4.6-4.5.9-7 .2-2.5.7-5.9 1-7.5.3-1.7.8-5.3 1.1-8 .4-2.8.9-6.4 1.1-8 .9-6.1 1.4-9.1 1.8-13 .3-2.2.8-5.8 1.1-8 .6-3.9 1.1-7.1 1.9-13.8.2-1.7.7-5.2 1.1-7.7.4-2.5.8-5.6 1-7 .3-2.7 1.1-8.7 2.2-15.3.3-2.3.7-5.6.8-7.2.2-1.7.4-3 .5-3 .1 0 .4-1.8.5-4 .2-2.2.4-4 .5-4 .1 0 .3-1.1.5-2.5.1-1.4.5-4.5.9-7 1.1-7.6 1.8-12.4 2.2-15 .1-1.4.6-4.5.9-7 .9-6.3 1.5-10.9 1.9-15 .2-1.9.5-3.5.6-3.5.1 0 .3-1.1.5-2.5s.6-4.5 1-7 .8-5.9 1-7.5c.5-4.4 1.4-11.3 2-14.4.2-1.4.7-4.9 1-7.6.4-2.8.8-6.1 1-7.5.2-1.4.6-4.8 1-7.5.8-6.2 1.4-10.1 2-14 .5-3.2 1.2-7.8 2-14.8.7-4.9 1.2-8.6 2-14.2.4-2.2.8-5.6 1-7.5.2-1.9.4-3.5.5-3.5.3 0 .8-3.9 1.4-10 .2-2.8.5-5 .6-5 .2 0 .5-2 1.4-9 .3-2.2.8-5.6 1-7.5.3-1.9.8-5.7 1-8.3.3-2.6.8-5.2 1.1-5.7 2.2-3.5 1.3-3.6-98.3-3.5-64.1 0-97.6.3-98 1zm390.2 736.7c-.2 1.6-.7 4.3-1 6-.3 1.8-.7 5.1-.9 7.3-.2 2.2-.7 5.1-1 6.5-.5 2.4-1.3 8.7-2 15.5-.2 1.6-.4 3-.5 3-.1 0-.4 1.6-.6 3.5-.2 1.9-.5 4.8-.7 6.5-.9 6.3-1.7 11.7-2.3 15.7-.4 2.4-.8 5.6-1 7.3-.1 1.6-.3 3-.4 3-.1 0-.4 1.3-.5 3-.2 1.6-.6 5-.9 7.5-.4 2.5-.8 6-1.1 7.9-.2 1.9-.7 5-1.1 7-.3 2-.8 5.2-.9 7.1-.2 1.9-.4 3.5-.5 3.5-.1 0-.4 1.3-.5 3-.2 1.6-.6 4.8-.8 7-.5 3.8-.8 5.9-2.3 15.2-.3 2.1-.7 5.4-.9 7.3-.2 1.9-.6 5.1-.9 7-.3 1.9-.9 5.3-1.2 7.5-.3 2.2-.7 5.6-1 7.5-.8 5.6-1.4 9.8-1.8 13.2-1.2 9.5-1.6 12.5-2 14.4-.2 1.2-.7 4.5-1.1 7.5-1.6 12.1-2.4 17.7-3 21.9-.3 1.9-.7 5.3-1 7.5-.6 4.5-1.2 8.6-1.9 13-.3 1.6-.7 5-1 7.5-.3 2.5-.8 6.3-1.1 8.5-.8 5.3-1.3 9.1-2 14.5-.4 2.5-.8 5.6-1 7-.2 1.4-.6 4.3-.9 6.5-.3 2.2-.8 5.8-1.1 8-.8 5.6-1.5 10.4-1.9 14.5-.3 1.9-.5 3.5-.6 3.5-.1 0-.3 1.1-.5 2.5-1.4 11-1.8 13.8-3 22.7-.3 2.1-.6 4.5-.7 5.3 0 .8-.4 1.9-.9 2.5-.9 1.2-292.8 1.3-294.7.1-.7-.4-.9-1.3-.5-1.9.4-.6.8-2.5.9-4.2.1-1.6.5-5 .9-7.5s.9-5.9 1.1-7.5c.2-1.7.7-4.8 1-7 .3-2.2.8-5.4 1-7 .6-4.9 1.2-9.7 1.9-14.5 1.3-8.6 1.5-10.5 1.9-14.5.2-2.2.5-4 .6-4 .1 0 .4-1.4.5-3 .2-1.7.5-4.4.8-6 .6-2.8 1.3-8.3 2.3-16.3.2-1.7.6-4.8.9-6.7.3-1.9.7-5.1 1-7 1.3-8.8 1.5-10.2 1.9-13 .3-1.7.7-5 1-7.5 1.7-13.1 1.7-12.7 3.1-21.8.6-4.5 1.3-9.6 1.9-14.7.2-1.7.7-5 1.1-7.5 1.2-8.2 1.6-11.5 1.9-15 .2-1.9.5-3.5.6-3.5.1 0 .4-1.4.6-3 1.2-10.2 2.3-18.5 3-22.5.3-1.9.7-5.1.9-7 .2-1.9.4-3.5.5-3.5.1 0 .3-1.1.5-2.5.1-1.4.6-5.2.9-8.5.4-3.3.9-7.1 1.3-8.5.3-1.4.7-4.1 1-6 .4-3.4.7-6.2 1.7-12.5.2-1.7.7-5.3 1.1-8 .6-5.2 1.1-8.3 2-15 .3-2.2.8-5.4 1-7 .2-1.7.6-4.6.9-6.6.3-2 .8-5.9 1.1-8.5.3-2.7.8-6 1.1-7.4.2-1.4.6-4.5 1-7 .3-2.5.7-5.6.9-7 1.3-8.8 1.7-12.7 1.8-14 0-.8.3-2 .8-2.5.5-.7 51.1-1 148.2-1h147.5l-.4 2.7z"/></svg>